<?xml version="1.0" standalone="no"?>
<!DOCTYPE svg PUBLIC "-//W3C//DTD SVG 20010904//EN"
 "http://www.w3.org/TR/2001/REC-SVG-20010904/DTD/svg10.dtd">
<svg version="1.0" xmlns="http://www.w3.org/2000/svg"
 width="768.000000pt" height="768.000000pt" viewBox="0 0 768.000000 768.000000"
 preserveAspectRatio="xMidYMid meet">
<metadata>
Created by potrace 1.10, written by Peter Selinger 2001-2011
</metadata>
<g transform="translate(0.000000,768.000000) scale(0.100000,-0.100000)"
fill="#38761d" stroke="none">
<path d="M3740 6296 c-48 -29 -68 -35 -141 -41 -146 -12 -159 -15 -185 -44
-20 -23 -37 -30 -85 -35 -51 -6 -61 -11 -74 -35 -10 -21 -26 -31 -59 -40 -31
-7 -47 -18 -51 -32 -4 -11 -22 -27 -41 -35 -18 -8 -43 -27 -55 -43 -12 -16
-32 -32 -45 -35 -13 -4 -30 -19 -38 -34 -8 -15 -26 -34 -40 -42 -14 -7 -26
-17 -26 -21 0 -9 -61 -86 -94 -119 -14 -14 -26 -31 -26 -38 0 -7 -11 -24 -24
-37 -13 -13 -29 -39 -35 -58 -7 -19 -20 -42 -31 -52 -11 -10 -22 -33 -26 -51
-3 -18 -19 -47 -35 -64 -22 -22 -29 -39 -29 -69 0 -28 -8 -49 -26 -70 -18 -22
-27 -46 -31 -88 -3 -38 -14 -71 -30 -95 -21 -32 -26 -53 -30 -130 -3 -58 -13
-116 -26 -153 -18 -54 -21 -83 -21 -280 0 -193 2 -225 18 -260 12 -26 21 -79
26 -149 7 -90 12 -114 31 -140 16 -21 26 -52 30 -93 5 -46 13 -70 33 -93 18
-22 26 -43 26 -70 0 -29 7 -45 26 -63 14 -13 30 -43 35 -67 6 -24 21 -54 34
-66 14 -13 25 -31 25 -40 0 -15 27 -54 77 -110 13 -14 29 -37 37 -52 8 -15 39
-53 70 -85 31 -32 56 -61 56 -66 0 -4 11 -13 24 -20 13 -7 28 -24 34 -36 6
-13 26 -28 45 -34 18 -6 43 -24 54 -39 12 -16 38 -33 62 -40 22 -7 41 -17 41
-22 0 -24 41 -50 80 -50 31 0 46 -7 73 -34 31 -31 40 -34 121 -41 77 -6 92
-10 121 -36 l33 -29 185 0 186 0 35 30 c29 26 45 31 121 39 80 8 91 12 117 40
23 25 37 31 69 31 38 0 79 26 79 50 0 5 19 15 41 22 24 7 50 24 62 40 11 15
36 33 54 39 19 6 39 21 45 34 6 12 21 29 34 36 13 7 24 16 24 20 0 5 23 32 51
61 29 29 62 69 76 88 42 62 74 105 94 126 10 11 19 28 19 37 0 9 14 30 30 47
20 20 30 41 30 60 0 18 11 42 30 63 21 25 30 45 30 70 0 24 9 46 26 67 20 23
28 47 33 93 4 41 14 72 30 93 19 26 24 50 31 145 5 73 14 128 26 154 16 35 18
68 18 255 -1 191 -3 222 -22 275 -12 37 -22 96 -25 153 -4 78 -8 99 -28 125
-16 22 -26 52 -30 94 -5 46 -13 70 -33 93 -18 23 -26 43 -26 71 0 30 -7 47
-26 66 -15 15 -31 43 -36 62 -6 20 -21 49 -34 64 -13 16 -24 37 -24 47 0 11
-13 33 -30 50 -16 17 -30 36 -30 42 0 7 -12 24 -26 38 -33 33 -94 110 -94 119
0 4 -12 14 -26 22 -14 7 -30 24 -35 37 -5 12 -22 28 -38 35 -16 7 -39 25 -51
40 -12 15 -37 34 -55 41 -18 8 -36 23 -40 35 -4 12 -20 24 -42 30 -20 6 -48
23 -63 40 -21 22 -39 30 -81 36 -40 5 -62 15 -85 37 -30 28 -38 30 -155 40
-105 8 -128 13 -147 31 -30 28 -162 36 -202 13z m375 -190 c23 -31 31 -34 92
-39 60 -4 70 -8 92 -36 18 -22 38 -33 65 -38 30 -5 43 -14 58 -39 12 -21 30
-35 49 -39 16 -4 39 -20 51 -35 11 -16 33 -34 49 -40 15 -7 30 -22 33 -36 4
-13 20 -31 36 -39 17 -9 30 -20 30 -25 0 -6 14 -24 30 -42 17 -17 30 -36 30
-43 0 -6 12 -23 28 -37 25 -23 42 -47 82 -118 9 -14 26 -39 38 -54 12 -15 24
-44 28 -65 4 -20 17 -48 30 -62 17 -17 27 -43 31 -78 4 -33 14 -63 28 -80 17
-19 25 -46 30 -96 4 -39 19 -97 33 -130 l25 -60 0 -320 0 -320 -25 -55 c-16
-32 -29 -84 -33 -125 -5 -48 -13 -77 -26 -91 -10 -11 -24 -47 -30 -79 -6 -35
-21 -71 -35 -88 -13 -16 -24 -39 -24 -52 0 -14 -13 -39 -29 -57 -15 -18 -32
-44 -36 -58 -4 -14 -17 -37 -29 -52 -44 -57 -78 -105 -108 -151 -17 -26 -43
-54 -59 -63 -16 -8 -29 -19 -29 -24 0 -15 -95 -107 -129 -125 -17 -8 -38 -26
-46 -39 -9 -13 -30 -26 -48 -30 -18 -4 -43 -19 -58 -37 -22 -27 -34 -32 -80
-36 -45 -4 -59 -11 -85 -38 -28 -29 -37 -33 -110 -39 -43 -4 -97 -11 -119 -16
-31 -7 -43 -6 -57 7 -16 14 -18 33 -14 182 3 173 8 195 49 228 13 10 45 46 71
80 26 34 51 65 57 68 5 4 34 39 64 78 30 40 84 108 120 152 61 75 98 121 228
286 28 37 69 83 90 102 36 33 37 37 37 100 0 55 -3 68 -19 77 -41 22 -69 12
-97 -32 -31 -49 -84 -119 -166 -217 -32 -38 -58 -72 -58 -76 0 -4 -27 -37 -60
-74 -33 -37 -60 -72 -60 -78 0 -6 -7 -17 -17 -24 -23 -20 -103 -131 -103 -144
0 -6 -11 -21 -25 -33 -14 -12 -25 -29 -25 -37 0 -23 -37 -55 -64 -55 -31 0
-40 -14 -26 -40 8 -15 6 -28 -10 -59 -11 -22 -25 -43 -31 -46 -16 -10 -79 55
-79 81 0 13 5 26 10 29 18 11 10 25 -22 38 -40 17 -108 90 -108 117 0 10 -10
31 -22 45 -22 24 -40 48 -124 155 -57 74 -72 93 -109 136 -19 23 -35 45 -35
49 0 4 -12 19 -27 35 -16 15 -41 47 -58 70 -16 23 -40 53 -53 66 -12 14 -28
40 -36 59 -25 59 -90 59 -125 -1 -27 -45 -27 -71 2 -101 12 -13 36 -40 54 -61
18 -20 44 -50 58 -65 13 -15 32 -41 40 -57 8 -16 24 -34 35 -40 11 -6 20 -16
20 -23 0 -8 14 -26 30 -42 17 -16 30 -34 30 -40 0 -6 14 -21 30 -33 17 -13 30
-28 30 -35 0 -7 14 -26 30 -42 17 -16 30 -33 30 -38 0 -5 12 -21 28 -37 15
-15 41 -46 57 -69 31 -43 75 -96 118 -141 13 -14 27 -34 31 -45 3 -11 18 -27
34 -36 36 -20 53 -85 57 -221 3 -57 5 -119 7 -138 5 -54 -24 -63 -151 -48 -98
12 -103 14 -127 45 -22 30 -30 33 -76 33 -44 0 -54 4 -82 34 -17 18 -46 38
-65 45 -19 6 -40 20 -48 31 -8 11 -28 27 -44 36 -17 8 -53 39 -80 67 -27 29
-74 77 -104 108 -30 31 -55 61 -55 66 0 6 -15 29 -32 52 -64 80 -75 96 -83
121 -4 14 -21 40 -36 58 -16 18 -29 43 -29 57 0 13 -11 37 -24 52 -16 19 -27
49 -32 82 -4 33 -16 63 -30 81 -18 21 -25 45 -30 101 -4 45 -16 92 -29 119
-21 40 -24 65 -29 235 -8 253 4 491 27 526 10 14 23 64 29 110 8 61 18 91 33
109 15 16 25 44 28 79 5 38 14 62 31 80 13 14 26 42 30 62 4 21 16 50 28 65
12 15 29 40 38 54 40 71 57 95 83 118 15 14 27 31 27 37 0 7 14 26 30 43 17
18 30 36 30 42 0 5 13 16 30 25 16 8 32 26 36 39 3 14 18 29 33 36 16 6 38 24
49 40 12 15 35 31 52 35 19 4 36 17 45 35 11 21 27 32 58 40 25 7 52 23 68 42
22 26 33 31 92 35 58 5 71 10 88 32 11 14 33 29 47 32 15 4 134 7 264 8 l237
1 26 -34z m-273 -3167 c17 -9 18 -13 7 -20 -16 -10 -63 -12 -72 -2 -9 9 12 33
30 33 8 0 24 -5 35 -11z"/>
<path d="M3784 5808 c-6 -7 -20 -32 -32 -54 -19 -39 -20 -49 -10 -180 8 -115
31 -258 55 -346 5 -20 50 -35 64 -21 13 13 17 579 4 592 -18 18 -70 24 -81 9z"/>
<path d="M3424 5522 c-43 -30 -56 -98 -25 -126 11 -10 22 -28 25 -40 3 -12 17
-28 31 -36 14 -7 25 -17 25 -21 0 -10 72 -101 149 -188 17 -18 33 -42 36 -52
4 -11 19 -26 34 -34 40 -20 51 -75 51 -262 0 -152 5 -189 46 -351 5 -17 55
-35 66 -24 5 5 11 139 13 298 1 159 6 296 9 304 4 9 17 22 30 30 13 8 46 43
72 77 27 34 69 88 94 119 25 32 69 84 99 116 49 53 55 64 59 111 5 66 -13 90
-66 85 -30 -2 -40 -10 -61 -44 -14 -23 -42 -66 -62 -95 -20 -30 -45 -67 -55
-83 -10 -15 -28 -44 -40 -64 -13 -24 -31 -40 -52 -46 -26 -7 -32 -14 -32 -36
0 -48 -27 -100 -53 -100 -32 0 -71 54 -62 87 5 21 -3 33 -54 81 -37 36 -63 71
-71 95 -6 20 -16 37 -21 37 -4 0 -16 15 -25 33 -9 17 -25 38 -35 45 -9 6 -20
26 -24 42 -9 42 -66 66 -101 42z"/>
<path d="M3252 4922 c-47 -47 -35 -131 27 -194 14 -15 42 -48 61 -73 19 -26
47 -59 63 -73 15 -15 27 -30 27 -35 0 -5 14 -26 31 -46 41 -48 73 -87 115
-141 66 -84 89 -112 120 -143 45 -45 54 -90 54 -266 0 -132 4 -170 26 -262 24
-97 29 -108 52 -114 13 -3 29 -2 34 3 5 5 10 137 12 294 4 282 8 319 39 331 8
3 96 108 197 234 101 125 210 256 242 290 55 58 63 76 58 128 -4 47 -52 88
-90 78 -9 -2 -31 -30 -50 -61 -18 -31 -45 -71 -59 -89 -14 -18 -43 -54 -63
-80 -21 -26 -60 -77 -88 -112 -27 -35 -50 -69 -50 -76 0 -7 -7 -19 -16 -26 -9
-8 -25 -33 -35 -56 -15 -35 -24 -43 -53 -49 -30 -5 -36 -10 -36 -33 0 -46 -26
-106 -48 -109 -36 -6 -91 85 -62 103 20 12 9 26 -34 44 -47 21 -80 59 -92 107
-4 16 -19 43 -33 60 -14 17 -38 46 -53 64 -16 17 -28 37 -28 43 0 6 -15 25
-32 43 -64 63 -77 79 -83 107 -4 15 -16 32 -26 38 -10 5 -26 24 -35 42 -9 18
-17 33 -18 34 0 1 -13 4 -28 8 -19 5 -32 1 -46 -13z"/>
<path d="M2729 2444 c-11 -13 -13 -52 -9 -188 9 -310 6 -340 -32 -334 -15 2
-25 16 -36 48 -8 25 -23 70 -34 100 -11 30 -27 74 -35 98 -9 23 -24 47 -34 52
-11 6 -22 31 -29 65 -6 30 -15 57 -20 60 -5 3 -18 26 -29 50 -22 49 -61 69
-86 44 -19 -19 -24 -761 -6 -783 18 -22 50 -26 68 -8 14 15 15 42 9 254 -7
240 -3 278 28 278 22 0 37 -26 56 -93 24 -84 68 -188 90 -212 10 -11 23 -38
29 -60 6 -22 27 -70 46 -107 30 -56 41 -68 61 -68 16 0 27 7 32 23 5 12 9 189
11 393 2 393 3 383 -45 398 -14 4 -26 1 -35 -10z"/>
<path d="M4180 2445 c-19 -23 -5 -82 34 -139 19 -28 37 -65 41 -82 3 -18 15
-40 25 -49 10 -9 22 -31 26 -49 3 -17 15 -49 27 -71 18 -36 19 -53 15 -201 -4
-120 -2 -170 8 -193 16 -39 47 -41 70 -5 15 22 16 47 11 201 -5 159 -4 179 13
212 10 20 25 52 34 71 9 19 23 46 30 60 28 50 75 156 81 180 7 31 -10 80 -27
80 -32 0 -70 -46 -83 -100 -18 -73 -60 -173 -78 -184 -22 -14 -46 0 -53 31 -3
15 -17 53 -29 83 -13 30 -28 74 -34 96 -9 32 -19 45 -45 58 -42 20 -50 20 -66
1z"/>
<path d="M5472 2450 c-12 -5 -74 -11 -137 -13 -69 -2 -120 -8 -126 -14 -17
-17 -19 -747 -2 -764 8 -8 20 -8 46 0 26 9 67 9 158 1 135 -11 162 -4 175 45
13 51 -8 58 -141 53 -171 -8 -165 -12 -165 121 0 92 3 112 19 132 l19 24 51
-19 c48 -17 53 -17 76 -2 20 13 25 25 25 56 0 54 -24 67 -96 51 -62 -14 -94
-3 -95 32 -3 110 3 173 21 191 17 17 25 18 120 6 73 -8 106 -8 113 -1 15 15
14 76 -2 95 -15 18 -26 19 -59 6z"/>
<path d="M2110 2425 l-20 -22 26 -38 26 -38 -2 -268 c-1 -244 -3 -272 -21
-313 -16 -36 -17 -49 -8 -70 11 -23 16 -25 83 -23 l71 2 3 33 c2 20 -5 45 -17
66 -20 32 -21 48 -21 308 l0 275 25 23 c26 24 33 64 14 76 -7 4 -40 7 -76 8
-53 1 -67 -2 -83 -19z"/>
<path d="M3420 2426 c-9 -26 -3 -44 26 -76 22 -25 22 -28 21 -294 -1 -266 -1
-269 -24 -296 -26 -31 -30 -77 -9 -105 12 -17 17 -18 41 -7 16 7 41 10 61 6
30 -5 35 -3 44 21 12 31 5 61 -19 89 -14 16 -16 54 -17 290 -1 270 0 271 23
299 13 16 23 36 23 45 0 37 -17 46 -90 47 -64 1 -73 -1 -80 -19z"/>
<path d="M4700 2441 c-21 -6 -25 -13 -25 -46 l0 -40 75 0 c41 0 81 -4 88 -9
11 -7 13 -73 11 -340 -1 -182 1 -338 5 -347 10 -23 57 -31 75 -14 12 12 14 70
12 353 -2 290 0 340 13 351 10 8 33 10 75 5 68 -7 91 3 91 42 0 12 -7 30 -16
39 -18 17 -41 16 -151 -7 -38 -8 -68 -8 -115 1 -100 19 -111 20 -138 12z"/>
<path d="M2923 2424 c-13 -9 -15 -62 -14 -374 1 -200 4 -367 6 -370 3 -4 53
-10 113 -14 97 -6 115 -5 168 15 32 12 64 26 71 33 6 6 25 46 42 89 30 77 31
82 31 248 0 161 -1 172 -27 236 -16 37 -44 84 -63 104 -33 34 -40 37 -110 43
-97 8 -198 4 -217 -10z m274 -118 l43 -48 2 -161 c3 -253 0 -268 -62 -321 -27
-22 -41 -26 -95 -26 -44 0 -66 5 -75 15 -19 23 -18 558 1 581 10 13 27 15 78
12 62 -4 66 -6 108 -52z"/>
<path d="M3720 2427 l-25 -13 -2 -351 c-2 -429 -10 -403 127 -403 108 0 188
26 220 70 28 39 51 107 52 152 0 39 -44 148 -61 148 -11 0 -41 51 -41 69 0 6
15 27 33 47 29 34 32 43 32 100 0 50 -5 68 -22 86 -11 13 -28 37 -36 54 -14
26 -25 33 -73 43 -75 15 -173 14 -204 -2z m176 -82 c55 -23 76 -87 53 -167
-12 -46 -49 -68 -113 -68 -35 0 -48 5 -56 19 -11 22 -14 190 -2 207 17 26 68
30 118 9z m29 -334 c100 -57 98 -218 -4 -252 -42 -14 -130 -6 -142 12 -5 8 -9
60 -9 117 0 97 2 104 25 128 21 21 31 24 62 18 21 -3 51 -14 68 -23z"/>
</g>
</svg>
